<svg xmlns="http://www.w3.org/2000/svg" xmlns:xlink="http://www.w3.org/1999/xlink" viewBox="0 0 3013.43 1080"><defs><style>.cls-1{isolation:isolate;}.cls-2{fill:url(#linear-gradient);}.cls-3{fill:url(#linear-gradient-2);}.cls-4{fill:url(#linear-gradient-3);}.cls-5{fill:url(#linear-gradient-4);}.cls-6{fill:url(#linear-gradient-5);}.cls-7{fill:url(#linear-gradient-6);}.cls-8{fill:#e6aa33;}.cls-9{fill:url(#linear-gradient-7);}.cls-10{fill:url(#linear-gradient-8);}.cls-11{fill:url(#linear-gradient-9);}.cls-12{fill:url(#linear-gradient-10);}.cls-13{fill:url(#linear-gradient-11);}.cls-14{fill:url(#linear-gradient-12);}.cls-15,.cls-16,.cls-17,.cls-18,.cls-20,.cls-21,.cls-23,.cls-24,.cls-25,.cls-26,.cls-27,.cls-28,.cls-29,.cls-30,.cls-31,.cls-32,.cls-33,.cls-34,.cls-35{mix-blend-mode:screen;}.cls-15{fill:url(#radial-gradient);}.cls-16{fill:url(#radial-gradient-2);}.cls-17{fill:url(#radial-gradient-3);}.cls-18{fill:url(#radial-gradient-4);}.cls-19{opacity:0.3;}.cls-20{fill:url(#radial-gradient-5);}.cls-21{fill:url(#radial-gradient-6);}.cls-22{opacity:0.5;}.cls-23{fill:url(#radial-gradient-7);}.cls-24{fill:url(#radial-gradient-8);}.cls-25{fill:url(#radial-gradient-9);}.cls-26{fill:url(#radial-gradient-10);}.cls-27{fill:url(#radial-gradient-11);}.cls-28{fill:url(#radial-gradient-12);}.cls-29{fill:url(#radial-gradient-13);}.cls-30{fill:url(#radial-gradient-14);}.cls-31{fill:url(#radial-gradient-15);}.cls-32{fill:url(#radial-gradient-16);}.cls-33{fill:url(#radial-gradient-17);}.cls-34{fill:url(#radial-gradient-18);}.cls-36{fill:url(#radial-gradient-19);}.cls-37{fill:url(#radial-gradient-20);}.cls-38{fill:url(#radial-gradient-21);}.cls-39{fill:url(#radial-gradient-22);}.cls-40{fill:url(#radial-gradient-23);}.cls-41{fill:url(#radial-gradient-24);}.cls-42{fill:url(#radial-gradient-25);}.cls-43{fill:url(#radial-gradient-26);}.cls-44{fill:url(#radial-gradient-27);}.cls-45{fill:url(#radial-gradient-28);}.cls-46{fill:url(#radial-gradient-29);}.cls-47{fill:url(#radial-gradient-30);}.cls-48{fill:url(#radial-gradient-31);}.cls-49{fill:url(#radial-gradient-32);}.cls-50{fill:url(#radial-gradient-33);}.cls-51{fill:url(#radial-gradient-34);}.cls-52{fill:url(#radial-gradient-35);}.cls-53{fill:url(#radial-gradient-36);}.cls-54{fill:url(#radial-gradient-37);}.cls-55{fill:url(#radial-gradient-38);}.cls-56{fill:url(#radial-gradient-39);}.cls-57{fill:url(#radial-gradient-40);}.cls-58{fill:url(#radial-gradient-41);}.cls-59{fill:url(#radial-gradient-42);}.cls-60{fill:url(#radial-gradient-43);}.cls-61{fill:url(#radial-gradient-44);}.cls-62{fill:url(#radial-gradient-45);}.cls-63{fill:url(#radial-gradient-46);}.cls-64{fill:url(#radial-gradient-47);}.cls-65{fill:url(#radial-gradient-48);}.cls-66{fill:url(#radial-gradient-49);}.cls-67{fill:url(#radial-gradient-50);}.cls-68{fill:url(#radial-gradient-51);}.cls-69{fill:url(#radial-gradient-52);}.cls-70{fill:url(#radial-gradient-53);}.cls-71{fill:url(#radial-gradient-54);}.cls-72{fill:url(#radial-gradient-55);}.cls-73{fill:url(#radial-gradient-56);}.cls-74{fill:url(#radial-gradient-57);}.cls-75{fill:url(#radial-gradient-58);}.cls-76{fill:url(#radial-gradient-59);}.cls-77{fill:url(#radial-gradient-60);}.cls-78{fill:url(#radial-gradient-61);}.cls-79{fill:url(#radial-gradient-62);}.cls-80{fill:url(#radial-gradient-63);}.cls-81{fill:url(#radial-gradient-64);}.cls-82{fill:url(#radial-gradient-65);}.cls-83{fill:url(#radial-gradient-66);}.cls-84{fill:url(#radial-gradient-67);}.cls-85{fill:url(#radial-gradient-68);}.cls-86{fill:url(#radial-gradient-69);}.cls-87{fill:url(#radial-gradient-70);}.cls-88{fill:url(#radial-gradient-71);}.cls-89{fill:url(#radial-gradient-72);}.cls-90{fill:url(#radial-gradient-73);}.cls-91{fill:url(#radial-gradient-74);}.cls-92{fill:url(#radial-gradient-75);}.cls-93{fill:url(#radial-gradient-76);}.cls-94{fill:none;}.cls-95{fill:url(#linear-gradient-13);}.cls-96{fill:url(#linear-gradient-14);}.cls-97{fill:url(#linear-gradient-15);}.cls-98{fill:url(#linear-gradient-16);}.cls-99{fill:url(#linear-gradient-17);}.cls-100{fill:url(#linear-gradient-18);}</style><linearGradient id="linear-gradient" x1="665.94" y1="423.1" x2="568.21" y2="780.54" gradientUnits="userSpaceOnUse"><stop offset="0" stop-color="#fde971"/><stop offset="0.11" stop-color="#fdce53"/><stop offset="0.22" stop-color="#fdb93c"/><stop offset="0.33" stop-color="#fdac2e"/><stop offset="0.42" stop-color="#fda829"/><stop offset="0.47" stop-color="#fdae2f"/><stop offset="0.82" stop-color="#fedc5d"/><stop offset="1" stop-color="#ffed6f"/></linearGradient><linearGradient id="linear-gradient-2" x1="704.19" y1="353.24" x2="601.84" y2="360.62" gradientUnits="userSpaceOnUse"><stop offset="0" stop-color="#a35204"/><stop offset="1" stop-color="#d17610"/></linearGradient><linearGradient id="linear-gradient-3" x1="377.73" y1="320.03" x2="601.44" y2="320.03" gradientUnits="userSpaceOnUse"><stop offset="0" stop-color="#fbce67"/><stop offset="1" stop-color="#d87d13"/></linearGradient><linearGradient id="linear-gradient-4" x1="374.56" y1="427.57" x2="496.71" y2="427.57" xlink:href="#linear-gradient-3"/><linearGradient id="linear-gradient-5" x1="462.76" y1="465.52" x2="558.03" y2="673.04" gradientUnits="userSpaceOnUse"><stop offset="0" stop-color="#d87d13"/><stop offset="1" stop-color="#fbce67"/></linearGradient><linearGradient id="linear-gradient-6" x1="363.27" y1="652.82" x2="558.73" y2="652.82" xlink:href="#linear-gradient-5"/><linearGradient id="linear-gradient-7" x1="328.53" y1="710.77" x2="556.42" y2="710.77" xlink:href="#linear-gradient-5"/><linearGradient id="linear-gradient-8" x1="334.63" y1="753.67" x2="547.4" y2="753.67" xlink:href="#linear-gradient-5"/><linearGradient id="linear-gradient-9" x1="566.24" y1="689" x2="723.4" y2="689" xlink:href="#linear-gradient-3"/><linearGradient id="linear-gradient-10" x1="568.47" y1="730.98" x2="763.92" y2="730.98" xlink:href="#linear-gradient-3"/><linearGradient id="linear-gradient-11" x1="580.37" y1="764.07" x2="723.4" y2="764.07" xlink:href="#linear-gradient-3"/><linearGradient id="linear-gradient-12" x1="628.51" y1="363.51" x2="683.46" y2="431.37" gradientUnits="userSpaceOnUse"><stop offset="0" stop-color="#be6506"/><stop offset="1" stop-color="#fbca58"/></linearGradient><radialGradient id="radial-gradient" cx="70.78" cy="1506.92" r="99.33" gradientTransform="translate(226.4 -1619.03) scale(4.7 1.59)" gradientUnits="userSpaceOnUse"><stop offset="0.06" stop-color="#fff"/><stop offset="0.09" stop-color="#ffbe1b"/><stop offset="0.1" stop-color="#e0a718"/><stop offset="0.12" stop-color="#a57b11"/><stop offset="0.14" stop-color="#73550c"/><stop offset="0.16" stop-color="#493708"/><stop offset="0.18" stop-color="#291f04"/><stop offset="0.2" stop-color="#130e02"/><stop offset="0.22" stop-color="#050400"/><stop offset="0.24"/><stop offset="0.34" stop-opacity="0.5"/><stop offset="0.95" stop-opacity="0"/></radialGradient><radialGradient id="radial-gradient-2" cx="620.35" cy="10176.52" r="343.15" gradientTransform="translate(-476.18 -2150.74) scale(1.67 0.29)" gradientUnits="userSpaceOnUse"><stop offset="0" stop-color="#ffb700"/><stop offset="0.01" stop-color="#ffa400"/><stop offset="0.03" stop-color="#ff7300"/><stop offset="0.03" stop-color="#ff6800"/><stop offset="0.1" stop-color="#d35600" stop-opacity="0.83"/><stop offset="0.19" stop-color="#a24200" stop-opacity="0.64"/><stop offset="0.29" stop-color="#773000" stop-opacity="0.47"/><stop offset="0.38" stop-color="#522100" stop-opacity="0.32"/><stop offset="0.49" stop-color="#341500" stop-opacity="0.2"/><stop offset="0.59" stop-color="#1d0c00" stop-opacity="0.11"/><stop offset="0.71" stop-color="#0d0500" stop-opacity="0.05"/><stop offset="0.83" stop-color="#030100" stop-opacity="0.01"/><stop offset="1" stop-opacity="0"/></radialGradient><radialGradient id="radial-gradient-3" cx="620.35" cy="17928.2" r="343.11" gradientTransform="translate(-476.18 -2198.66) scale(1.67 0.17)" gradientUnits="userSpaceOnUse"><stop offset="0" stop-color="#ffb700"/><stop offset="0.01" stop-color="#ffa400"/><stop offset="0.03" stop-color="#ff7300"/><stop offset="0.03" stop-color="#ff6800"/><stop offset="0.04" stop-color="#f66400" stop-opacity="0.96"/><stop offset="0.08" stop-color="#c85200" stop-opacity="0.78"/><stop offset="0.12" stop-color="#9d4000" stop-opacity="0.61"/><stop offset="0.17" stop-color="#773100" stop-opacity="0.47"/><stop offset="0.22" stop-color="#572300" stop-opacity="0.34"/><stop offset="0.28" stop-color="#3b1800" stop-opacity="0.23"/><stop offset="0.34" stop-color="#250f00" stop-opacity="0.15"/><stop offset="0.42" stop-color="#140800" stop-opacity="0.08"/><stop offset="0.51" stop-color="#090400" stop-opacity="0.03"/><stop offset="0.64" stop-color="#020100" stop-opacity="0.01"/><stop offset="1" stop-opacity="0"/></radialGradient><radialGradient id="radial-gradient-4" cx="99.39" cy="66963.19" r="173.59" gradientTransform="translate(199.71 -2246.53) scale(3.61 0.05)" gradientUnits="userSpaceOnUse"><stop offset="0.18" stop-color="#fff"/><stop offset="0.19" stop-color="#fffdf7"/><stop offset="0.19" stop-color="#fff7e2"/><stop offset="0.19" stop-color="#ffedbe"/><stop offset="0.19" stop-color="#ffdf8e"/><stop offset="0.2" stop-color="#ffcd4f"/><stop offset="0.2" stop-color="#ffb804"/><stop offset="0.2" stop-color="#ffb700"/><stop offset="0.21" stop-color="#ffa400"/><stop offset="0.24" stop-color="#ff7300"/><stop offset="0.25" stop-color="#ff6800"/><stop offset="0.3" stop-color="#d35600" stop-opacity="0.83"/><stop offset="0.37" stop-color="#a24200" stop-opacity="0.64"/><stop offset="0.45" stop-color="#773000" stop-opacity="0.47"/><stop offset="0.52" stop-color="#522100" stop-opacity="0.32"/><stop offset="0.6" stop-color="#341500" stop-opacity="0.2"/><stop offset="0.68" stop-color="#1d0c00" stop-opacity="0.11"/><stop offset="0.77" stop-color="#0d0500" stop-opacity="0.05"/><stop offset="0.87" stop-color="#030100" stop-opacity="0.01"/><stop offset="1" stop-opacity="0"/></radialGradient><radialGradient id="radial-gradient-5" cx="-1276.04" cy="-25700.85" r="154.72" gradientTransform="matrix(-2.15, -0.05, 0, -0.12, -2076.96, -2249.87)" gradientUnits="userSpaceOnUse"><stop offset="0" stop-color="#ffb700"/><stop offset="0.01" stop-color="#ffa400"/><stop offset="0.03" stop-color="#ff7300"/><stop offset="0.03" stop-color="#ff6800"/><stop offset="0.07" stop-color="#d95800" stop-opacity="0.85"/><stop offset="0.13" stop-color="#ac4600" stop-opacity="0.67"/><stop offset="0.19" stop-color="#823500" stop-opacity="0.51"/><stop offset="0.25" stop-color="#5f2700" stop-opacity="0.37"/><stop offset="0.33" stop-color="#411b00" stop-opacity="0.26"/><stop offset="0.4" stop-color="#291100" stop-opacity="0.16"/><stop offset="0.49" stop-color="#170900" stop-opacity="0.09"/><stop offset="0.59" stop-color="#0a0400" stop-opacity="0.04"/><stop offset="0.73" stop-color="#020100" stop-opacity="0.01"/><stop offset="1" stop-opacity="0"/></radialGradient><radialGradient id="radial-gradient-6" cx="-1956.3" cy="13571.3" r="154.7" gradientTransform="matrix(0.06, -1.78, 0.14, 0, -1203.03, -2756.36)" xlink:href="#radial-gradient-5"/><radialGradient id="radial-gradient-7" cx="-720.17" cy="-28956.43" r="174.9" gradientTransform="matrix(-2.06, 0.51, -0.04, -0.11, -2080.25, -2049.5)" xlink:href="#radial-gradient-5"/><radialGradient id="radial-gradient-8" cx="-2167.26" cy="4974.87" r="174.9" gradientTransform="matrix(-0.62, -1.71, 0.13, -0.03, -1444.46, -2759.09)" xlink:href="#radial-gradient-5"/><radialGradient id="radial-gradient-9" cx="-1128.17" cy="-26888.48" r="118.61" gradientTransform="matrix(-2.14, 0.11, -0.01, -0.12, -2086.22, -2193.58)" xlink:href="#radial-gradient-5"/><radialGradient id="radial-gradient-10" cx="-2033.29" cy="11285.49" r="118.62" gradientTransform="matrix(-0.13, -1.78, 0.14, -0.01, -1270.86, -2764.05)" xlink:href="#radial-gradient-5"/><radialGradient id="radial-gradient-11" cx="-2147" cy="-7930.88" r="118.62" gradientTransform="matrix(-1.46, -1.31, 0.1, -0.08, -1758.57, -2657.46)" xlink:href="#radial-gradient-5"/><radialGradient id="radial-gradient-12" cx="-807.92" cy="27063.75" r="118.64" gradientTransform="matrix(1.58, -1.21, 0.09, 0.08, -711.91, -2492.13)" xlink:href="#radial-gradient-5"/><radialGradient id="radial-gradient-13" cx="-125.69" cy="-29353.14" r="191.26" gradientTransform="matrix(-1.76, 1.03, -0.08, -0.09, -2008.23, -1857.92)" xlink:href="#radial-gradient-5"/><radialGradient id="radial-gradient-14" cx="-2192.33" cy="-4211.3" r="191.27" gradientTransform="matrix(-1.24, -1.46, 0.11, -0.07, -1675.31, -2699.33)" xlink:href="#radial-gradient-5"/><radialGradient id="radial-gradient-15" cx="445.31" cy="-26794.35" r="143.54" gradientTransform="matrix(-1.28, 1.43, -0.11, -0.07, -1866.5, -1696.76)" xlink:href="#radial-gradient-5"/><radialGradient id="radial-gradient-16" cx="-2027.91" cy="-13049.67" r="143.56" gradientTransform="matrix(-1.73, -1.06, 0.08, -0.09, -1869.49, -2581.7)" xlink:href="#radial-gradient-5"/><radialGradient id="radial-gradient-17" cx="-1736.49" cy="-19890.92" r="178.29" gradientTransform="matrix(-2.02, -0.61, 0.05, -0.11, -1997.04, -2438.69)" xlink:href="#radial-gradient-5"/><radialGradient id="radial-gradient-18" cx="-1580.56" cy="20698.1" r="178.31" gradientTransform="matrix(0.74, -1.68, 0.13, 0.04, -975.51, -2690.04)" xlink:href="#radial-gradient-5"/><radialGradient id="radial-gradient-19" cx="527.31" cy="1300.18" r="0.51" gradientTransform="translate(-620.31 -1554) scale(2.15 1.78)" gradientUnits="userSpaceOnUse"><stop offset="0.03" stop-color="#fff"/><stop offset="0.03" stop-color="#fffcf7"/><stop offset="0.03" stop-color="#fff3e2"/><stop offset="0.04" stop-color="#ffe4be"/><stop offset="0.04" stop-color="#ffd08e"/><stop offset="0.04" stop-color="#ffb64f"/><stop offset="0.04" stop-color="#ff9704"/><stop offset="0.04" stop-color="#ff9500"/><stop offset="0.08" stop-color="#ff8200"/><stop offset="0.12" stop-color="#ff6700"/><stop offset="0.13" stop-color="#ef6000"/><stop offset="0.2" stop-color="#bd4c00"/><stop offset="0.27" stop-color="#903a00"/><stop offset="0.34" stop-color="#692b00"/><stop offset="0.41" stop-color="#491d00"/><stop offset="0.5" stop-color="#2e1300"/><stop offset="0.58" stop-color="#1a0a00"/><stop offset="0.68" stop-color="#0b0400"/><stop offset="0.8" stop-color="#030100"/><stop offset="1"/></radialGradient><radialGradient id="radial-gradient-20" cx="551.22" cy="1290.46" r="0.61" xlink:href="#radial-gradient-19"/><radialGradient id="radial-gradient-21" cx="542.55" cy="1313.07" r="1.03" xlink:href="#radial-gradient-19"/><radialGradient id="radial-gradient-22" cx="556.17" cy="1302.62" r="0.5" xlink:href="#radial-gradient-19"/><radialGradient id="radial-gradient-23" cx="518.52" cy="1293.22" r="0.92" xlink:href="#radial-gradient-19"/><radialGradient id="radial-gradient-24" cx="538.47" cy="1318.73" r="1.08" xlink:href="#radial-gradient-19"/><radialGradient id="radial-gradient-25" cx="531.26" cy="1312.08" r="0.61" xlink:href="#radial-gradient-19"/><radialGradient id="radial-gradient-26" cx="516.44" cy="1303.76" r="0.67" xlink:href="#radial-gradient-19"/><radialGradient id="radial-gradient-27" cx="556.88" cy="1318.68" r="0.87" xlink:href="#radial-gradient-19"/><radialGradient id="radial-gradient-28" cx="520.35" cy="1308.62" r="0.5" xlink:href="#radial-gradient-19"/><radialGradient id="radial-gradient-29" cx="526.29" cy="1288.82" r="1.04" xlink:href="#radial-gradient-19"/><radialGradient id="radial-gradient-30" cx="564.01" cy="1302.92" r="0.52" xlink:href="#radial-gradient-19"/><radialGradient id="radial-gradient-31" cx="563.45" cy="1307.31" r="0.54" xlink:href="#radial-gradient-19"/><radialGradient id="radial-gradient-32" cx="514.28" cy="1312.8" r="0.89" xlink:href="#radial-gradient-19"/><radialGradient id="radial-gradient-33" cx="531.74" cy="1319.09" r="0.94" xlink:href="#radial-gradient-19"/><radialGradient id="radial-gradient-34" cx="545.27" cy="1304.49" r="0.83" xlink:href="#radial-gradient-19"/><radialGradient id="radial-gradient-35" cx="574.53" cy="1297.89" r="0.71" xlink:href="#radial-gradient-19"/><radialGradient id="radial-gradient-36" cx="555.53" cy="1307.35" r="0.56" xlink:href="#radial-gradient-19"/><radialGradient id="radial-gradient-37" cx="549.18" cy="1299.44" r="0.66" xlink:href="#radial-gradient-19"/><radialGradient id="radial-gradient-38" cx="569.94" cy="1292.62" r="0.59" xlink:href="#radial-gradient-19"/><radialGradient id="radial-gradient-39" cx="577.71" cy="1311.16" r="0.6" xlink:href="#radial-gradient-19"/><radialGradient id="radial-gradient-40" cx="533.62" cy="1305.3" r="0.58" xlink:href="#radial-gradient-19"/><radialGradient id="radial-gradient-41" cx="529.17" cy="1303.97" r="0.44" xlink:href="#radial-gradient-19"/><radialGradient id="radial-gradient-42" cx="524.26" cy="1310.08" r="0.46" xlink:href="#radial-gradient-19"/><radialGradient id="radial-gradient-43" cx="555.09" cy="1295.43" r="0.48" xlink:href="#radial-gradient-19"/><radialGradient id="radial-gradient-44" cx="536.99" cy="1295.24" r="0.84" xlink:href="#radial-gradient-19"/><radialGradient id="radial-gradient-45" cx="531.56" cy="1296.32" r="0.74" xlink:href="#radial-gradient-19"/><radialGradient id="radial-gradient-46" cx="539.8" cy="1287.4" r="0.86" xlink:href="#radial-gradient-19"/><radialGradient id="radial-gradient-47" cx="559.53" cy="1285.07" r="0.41" gradientTransform="translate(-620.31 -1554) scale(2.15 1.78)" gradientUnits="userSpaceOnUse"><stop offset="0.18" stop-color="#fff"/><stop offset="0.19" stop-color="#fffcf7"/><stop offset="0.19" stop-color="#fff3e2"/><stop offset="0.19" stop-color="#ffe4be"/><stop offset="0.19" stop-color="#ffd08e"/><stop offset="0.2" stop-color="#ffb64f"/><stop offset="0.2" stop-color="#ff9704"/><stop offset="0.2" stop-color="#ff9500"/><stop offset="0.22" stop-color="#ff8200"/><stop offset="0.25" stop-color="#ff6700"/><stop offset="0.3" stop-color="#d35500"/><stop offset="0.37" stop-color="#a24200"/><stop offset="0.45" stop-color="#773000"/><stop offset="0.52" stop-color="#522100"/><stop offset="0.6" stop-color="#341500"/><stop offset="0.68" stop-color="#1d0c00"/><stop offset="0.77" stop-color="#0d0500"/><stop offset="0.87" stop-color="#030100"/><stop offset="1"/></radialGradient><radialGradient id="radial-gradient-48" cx="550.69" cy="1294.88" r="4.76" xlink:href="#radial-gradient-47"/><radialGradient id="radial-gradient-49" cx="536.04" cy="1299.98" r="9.78" xlink:href="#radial-gradient-47"/><radialGradient id="radial-gradient-50" cx="541.36" cy="1284.64" r="0.76" xlink:href="#radial-gradient-47"/><radialGradient id="radial-gradient-51" cx="559.32" cy="1336.18" r="1.09" xlink:href="#radial-gradient-47"/><radialGradient id="radial-gradient-52" cx="505.99" cy="1296.01" r="2.22" xlink:href="#radial-gradient-47"/><radialGradient id="radial-gradient-53" cx="498.97" cy="1292.03" r="1.61" xlink:href="#radial-gradient-47"/><radialGradient id="radial-gradient-54" cx="549.94" cy="1314.71" r="7.83" xlink:href="#radial-gradient-47"/><radialGradient id="radial-gradient-55" cx="551.41" cy="1280.97" r="0.42" xlink:href="#radial-gradient-47"/><radialGradient id="radial-gradient-56" cx="511.44" cy="1313.11" r="2.4" xlink:href="#radial-gradient-47"/><radialGradient id="radial-gradient-57" cx="514.51" cy="1286.43" r="0.57" xlink:href="#radial-gradient-47"/><radialGradient id="radial-gradient-58" cx="532.85" cy="1322.43" r="2.19" xlink:href="#radial-gradient-47"/><radialGradient id="radial-gradient-59" cx="575.25" cy="1329.63" r="1.12" xlink:href="#radial-gradient-47"/><radialGradient id="radial-gradient-60" cx="567.83" cy="1297.57" r="2.14" xlink:href="#radial-gradient-47"/><radialGradient id="radial-gradient-61" cx="521.85" cy="1305.07" r="2.21" xlink:href="#radial-gradient-47"/><radialGradient id="radial-gradient-62" cx="578.66" cy="1316.96" r="3.97" xlink:href="#radial-gradient-47"/><radialGradient id="radial-gradient-63" cx="570.57" cy="1321.17" r="2.49" xlink:href="#radial-gradient-47"/><radialGradient id="radial-gradient-64" cx="527.26" cy="1332.44" r="1.13" xlink:href="#radial-gradient-47"/><radialGradient id="radial-gradient-65" cx="520.65" cy="1322.38" r="1.33" xlink:href="#radial-gradient-47"/><radialGradient id="radial-gradient-66" cx="496.63" cy="1318.86" r="0.92" xlink:href="#radial-gradient-47"/><radialGradient id="radial-gradient-67" cx="495.46" cy="1314.11" r="0.64" xlink:href="#radial-gradient-47"/><radialGradient id="radial-gradient-68" cx="490.01" cy="1307.36" r="0.24" xlink:href="#radial-gradient-47"/><radialGradient id="radial-gradient-69" cx="486.74" cy="1305.48" r="0.29" xlink:href="#radial-gradient-47"/><radialGradient id="radial-gradient-70" cx="544.3" cy="1326.77" r="2.31" xlink:href="#radial-gradient-47"/><radialGradient id="radial-gradient-71" cx="577.9" cy="1304.09" r="3.83" xlink:href="#radial-gradient-47"/><radialGradient id="radial-gradient-72" cx="596.96" cy="1315.76" r="0.59" xlink:href="#radial-gradient-47"/><radialGradient id="radial-gradient-73" cx="606.52" cy="1312.38" r="0.43" xlink:href="#radial-gradient-47"/><radialGradient id="radial-gradient-74" cx="610.53" cy="1306.48" r="0.58" xlink:href="#radial-gradient-47"/><radialGradient id="radial-gradient-75" cx="601.9" cy="1302.28" r="0.62" xlink:href="#radial-gradient-47"/><radialGradient id="radial-gradient-76" cx="589.78" cy="1299.12" r="0.92" xlink:href="#radial-gradient-47"/><linearGradient id="linear-gradient-13" x1="1280.62" y1="419.03" x2="1559.11" y2="870.88" gradientUnits="userSpaceOnUse"><stop offset="0" stop-color="#fff"/><stop offset="0.09" stop-color="#f4f4f4"/><stop offset="0.26" stop-color="#d8d8d8"/><stop offset="0.47" stop-color="#a9a9a9"/><stop offset="0.52" stop-color="#9d9d9d"/><stop offset="0.56" stop-color="#a8a8a8"/><stop offset="0.69" stop-color="#cdcdcd"/><stop offset="0.81" stop-color="#e9e9e9"/><stop offset="0.92" stop-color="#f9f9f9"/><stop offset="1" stop-color="#fff"/></linearGradient><linearGradient id="linear-gradient-14" x1="1463.6" y1="306.25" x2="1742.09" y2="758.11" xlink:href="#linear-gradient-13"/><linearGradient id="linear-gradient-15" x1="1618.06" y1="211.06" x2="1896.55" y2="662.91" xlink:href="#linear-gradient-13"/><linearGradient id="linear-gradient-16" x1="1970.5" y1="298.66" x2="2207.06" y2="745.04" xlink:href="#linear-gradient-3"/><linearGradient id="linear-gradient-17" x1="2256.1" y1="391.56" x2="2611.34" y2="876.63" xlink:href="#linear-gradient-13"/><linearGradient id="linear-gradient-18" x1="2467.63" y1="236.65" x2="2822.87" y2="721.73" xlink:href="#linear-gradient-13"/></defs><g class="cls-1"><g id="Layer_1" data-name="Layer 1"><path class="cls-2" d="M564,778.22c15.39-39.31,33.58-80.13,53.16-122.84,30.48-66.48,68.76-143,99.95-183.46L601.43,423.28c-8,50.05-15.15,102.29-21.22,156.63C572.5,649,567.26,715.17,564,778.22Z"/><polygon class="cls-3" points="689.23 345.26 601.44 423.28 578.7 299.67 689.23 345.26"/><polygon class="cls-4" points="601.44 423.28 400.88 278.57 377.73 216.78 578.7 299.67 601.44 423.28"/><path class="cls-5" d="M374.56,357.64s7.49,18.65,9.25,55.5l56.42,84.36,56.48-55.95S381.75,361.85,374.56,357.64Z"/><path class="cls-6" d="M440.23,497.5s111.3,234.23,121.13,280.72c0,0-14-185.53-64.65-336.67Z"/><path class="cls-7" d="M363.27,527.42c5.45,6.14,15,23.3,19.31,70.08,0,0,155.32,155.21,176.15,180.72C558.73,778.22,445.28,595.57,363.27,527.42Z"/><path class="cls-8" d="M359.24,524.15q2,1.59,4,3.27C360.86,524.71,359.24,524.15,359.24,524.15Z"/><path class="cls-9" d="M556.42,778.22S470.3,704.67,328.53,643.31C328.53,643.31,504.5,756.11,556.42,778.22Z"/><path class="cls-10" d="M521.51,778.22H547.4S415.84,736.9,334.63,729.13C334.63,729.13,476.64,765.66,521.51,778.22Z"/><path class="cls-11" d="M723.4,599.78S572.87,754.08,566.24,778.22c0,0,96.41-85.7,153.51-134.91C719.75,643.31,718.42,610.72,723.4,599.78Z"/><path class="cls-12" d="M700,717.75a17.22,17.22,0,0,0,1.8-.83l62.15-33.18s-173.65,71.93-195.45,94.48c0,0,74.15-31.7,105.66-38.09C674.13,740.13,675.29,727.65,700,717.75Z"/><path class="cls-13" d="M674.1,770.12c7.27-6.46,49.3-20.19,49.3-20.19l-143,28.29Z"/><polygon class="cls-14" points="689.22 345.26 601.43 423.28 717.06 471.92 689.22 345.26"/><path class="cls-15" d="M1025.44,773.14c0,87.1-208.89,157.7-466.58,157.7S92.29,860.24,92.29,773.14,301.17,615.45,558.86,615.45,1025.44,686.05,1025.44,773.14Z"/><path class="cls-16" d="M1131.35,774.62c0,54.48-256.32,98.65-572.49,98.65S-13.62,829.1-13.62,774.62,242.68,676,558.86,676,1131.35,720.13,1131.35,774.62Z"/><path class="cls-17" d="M1131.35,774.62c0,31.42-256.32,56.9-572.49,56.9S-13.62,806-13.62,774.62s256.3-56.91,572.48-56.91S1131.35,743.19,1131.35,774.62Z"/><polygon class="cls-18" points="558.87 766.78 -67.97 774.62 558.87 782.46 1185.69 774.62 558.87 766.78"/><g class="cls-19"><path class="cls-20" d="M226.52,768.83c.35-9.85,149.41-14.24,333-9.82s332.06,16,331.72,25.83-149.42,14.23-333,9.81S226.17,778.66,226.52,768.83Z"/><path class="cls-21" d="M568.5,501c11.86.29,17.16,124,11.83,276.33s-19.26,275.59-31.12,275.3-17.15-124-11.82-276.33S556.65,500.72,568.5,501Z"/></g><g class="cls-22"><path class="cls-23" d="M198.91,866.69c-3.86-10.66,154.16-59.53,353-109.16S915,676.31,918.82,687s-154.15,59.53-353,109.16S202.78,877.35,198.91,866.69Z"/><path class="cls-24" d="M450.59,478.09c12.84-3.21,71.73,128,131.53,292.93s97.87,301.33,85,304.54S595.41,947.62,535.6,782.63,437.75,481.3,450.59,478.09Z"/></g><g class="cls-22"><path class="cls-25" d="M304.42,789.69c-.54-7.55,112.92-19.4,253.44-26.5s254.88-6.75,255.44.79-112.91,19.4-253.44,26.49S305,797.22,304.42,789.69Z"/><path class="cls-26" d="M543.38,565.67c9.07-.46,23.38,93.71,31.91,210.32s8.14,211.54-.95,212S551,894.28,542.41,777.65,534.29,566.13,543.38,565.67Z"/></g><g class="cls-22"><path class="cls-27" d="M386.09,621.3c6.69-5.12,89.45,60.36,184.88,146.26s167.37,159.68,160.69,164.8S642.18,872,546.75,786.09,379.4,626.41,386.09,621.3Z"/><path class="cls-28" d="M746.27,633.43C752.44,639,673.54,707.68,570,786.88S377.63,925.77,371.46,920.22,444.21,846,547.71,766.78,740.1,627.88,746.27,633.43Z"/></g><g class="cls-22"><path class="cls-29" d="M222.86,973.14C214.42,963.19,358,867.23,543.59,758.82s342.84-188.26,351.27-178.3S759.71,686.43,574.14,794.85,231.3,983.09,222.86,973.14Z"/><path class="cls-30" d="M322.31,498c12-7,127.62,112.16,258.26,266.18s226.82,284.52,214.84,291.54S667.79,943.51,537.14,789.51,310.31,505,322.31,498Z"/></g><g class="cls-19"><path class="cls-31" d="M375.56,982.78c-8.84-5.43,66-102,167.28-215.78S733.31,565.44,742.16,570.87s-66,102-167.26,215.79S384.42,988.22,375.56,982.78Z"/><path class="cls-32" d="M310.7,624.7c6.55-7.34,123,54.81,260,138.82S813.57,921.59,807,929s-122.94-54.8-260-138.81S304.16,632.06,310.7,624.7Z"/></g><path class="cls-33" d="M198.94,667.71c4.69-10.65,169.63,29.56,368.42,89.82S923.48,875.28,918.78,885.94s-169.63-29.55-368.41-89.81S194.25,678.38,198.94,667.71Z"/><path class="cls-34" d="M690.34,478.12C703.18,482,654.73,618.9,582.12,783.88s-141.88,295.55-154.74,291.66S463,934.75,535.6,769.77,677.49,474.22,690.34,478.12Z"/><g class="cls-35"><path class="cls-36" d="M513.85,764.56a1.12,1.12,0,1,1-1.11-.92A1,1,0,0,1,513.85,764.56Z"/></g><g class="cls-35"><path class="cls-37" d="M565.41,747.22a1.33,1.33,0,1,1-1.3-1.08A1.21,1.21,0,0,1,565.41,747.22Z"/></g><g class="cls-35"><path class="cls-38" d="M547.71,787.54a2.27,2.27,0,1,1-2.23-1.84A2.07,2.07,0,0,1,547.71,787.54Z"/></g><g class="cls-35"><path class="cls-39" d="M575.82,768.91a1.1,1.1,0,1,1-1.09-.9A1,1,0,0,1,575.82,768.91Z"/></g><g class="cls-35"><path class="cls-40" d="M495.82,752.15a2,2,0,1,1-2-1.64A1.84,1.84,0,0,1,495.82,752.15Z"/></g><g class="cls-35"><path class="cls-41" d="M539,797.64a2.37,2.37,0,1,1-2.33-1.93A2.17,2.17,0,0,1,539,797.64Z"/></g><g class="cls-35"><path class="cls-42" d="M522.54,785.78a1.33,1.33,0,1,1-1.31-1.09A1.21,1.21,0,0,1,522.54,785.78Z"/></g><g class="cls-35"><path class="cls-43" d="M490.81,770.94a1.46,1.46,0,1,1-1.44-1.2A1.33,1.33,0,0,1,490.81,770.94Z"/></g><g class="cls-35"><path class="cls-44" d="M578.13,797.55a1.9,1.9,0,1,1-1.87-1.54A1.73,1.73,0,0,1,578.13,797.55Z"/></g><g class="cls-35"><path class="cls-45" d="M498.86,779.62a1.09,1.09,0,1,1-1.07-.89A1,1,0,0,1,498.86,779.62Z"/></g><g class="cls-35"><path class="cls-46" d="M512.78,744.3a2.27,2.27,0,1,1-2.23-1.86A2.07,2.07,0,0,1,512.78,744.3Z"/></g><g class="cls-35"><path class="cls-47" d="M592.72,769.45a1.14,1.14,0,1,1-1.12-.93A1,1,0,0,1,592.72,769.45Z"/></g><g class="cls-35"><path class="cls-48" d="M591.53,777.27a1.17,1.17,0,1,1-1.15-.95A1.07,1.07,0,0,1,591.53,777.27Z"/></g><g class="cls-35"><path class="cls-49" d="M486.63,787.06a1.93,1.93,0,1,1-1.9-1.58A1.76,1.76,0,0,1,486.63,787.06Z"/></g><g class="cls-35"><path class="cls-50" d="M524.28,798.29a2.06,2.06,0,1,1-2-1.68A1.88,1.88,0,0,1,524.28,798.29Z"/></g><g class="cls-35"><path class="cls-51" d="M553.11,772.25a1.81,1.81,0,1,1-1.78-1.48A1.65,1.65,0,0,1,553.11,772.25Z"/></g><g class="cls-35"><path class="cls-52" d="M615.72,760.48a1.55,1.55,0,1,1-1.52-1.26A1.41,1.41,0,0,1,615.72,760.48Z"/></g><g class="cls-35"><path class="cls-53" d="M574.57,777.34a1.22,1.22,0,1,1-1.2-1A1.11,1.11,0,0,1,574.57,777.34Z"/></g><g class="cls-35"><path class="cls-54" d="M561.14,763.24a1.43,1.43,0,1,1-1.41-1.17A1.3,1.3,0,0,1,561.14,763.24Z"/></g><g class="cls-35"><path class="cls-55" d="M605.6,751.09a1.28,1.28,0,1,1-1.26-1.05A1.17,1.17,0,0,1,605.6,751.09Z"/></g><g class="cls-35"><path class="cls-56" d="M622.32,784.14a1.32,1.32,0,1,1-1.3-1.07A1.21,1.21,0,0,1,622.32,784.14Z"/></g><g class="cls-35"><path class="cls-57" d="M527.53,773.68a1.26,1.26,0,1,1-1.24-1A1.15,1.15,0,0,1,527.53,773.68Z"/></g><g class="cls-35"><path class="cls-58" d="M517.66,771.31a.85.85,0,0,1-.93.78.79.79,0,1,1,.93-.78Z"/></g><g class="cls-35"><path class="cls-59" d="M507.17,782.21a1,1,0,1,1-1-.82A.92.92,0,0,1,507.17,782.21Z"/></g><g class="cls-35"><path class="cls-60" d="M573.45,756.09a1,1,0,1,1-1-.84A.95.95,0,0,1,573.45,756.09Z"/></g><g class="cls-35"><path class="cls-61" d="M535.36,755.75a1.85,1.85,0,1,1-1.82-1.5A1.69,1.69,0,0,1,535.36,755.75Z"/></g><g class="cls-35"><path class="cls-62" d="M523.45,757.67a1.62,1.62,0,1,1-1.59-1.32A1.47,1.47,0,0,1,523.45,757.67Z"/></g><g class="cls-35"><path class="cls-63" d="M541.41,741.77a1.87,1.87,0,1,1-1.83-1.53A1.7,1.7,0,0,1,541.41,741.77Z"/></g><g class="cls-35"><path class="cls-64" d="M582.84,737.62a.91.91,0,1,1-.89-.74A.83.83,0,0,1,582.84,737.62Z"/></g><g class="cls-35"><path class="cls-65" d="M573.2,755.1c0,4.7-4.59,8.5-10.24,8.5s-10.24-3.8-10.24-8.5,4.59-8.49,10.24-8.49S573.2,750.41,573.2,755.1Z"/></g><g class="cls-35"><path class="cls-66" d="M552.5,764.2c0,9.64-9.4,17.44-21,17.44s-21-7.8-21-17.44,9.41-17.43,21-17.43S552.5,754.58,552.5,764.2Z"/></g><g class="cls-35"><path class="cls-67" d="M544.56,736.86a1.66,1.66,0,1,1-1.63-1.35A1.51,1.51,0,0,1,544.56,736.86Z"/></g><g class="cls-35"><path class="cls-68" d="M583.84,828.77a2.38,2.38,0,1,1-2.33-1.94A2.16,2.16,0,0,1,583.84,828.77Z"/></g><g class="cls-35"><path class="cls-69" d="M471.69,757.13c0,2.19-2.14,4-4.77,4s-4.78-1.77-4.78-4,2.14-4,4.78-4S471.69,754.94,471.69,757.13Z"/></g><g class="cls-35"><path class="cls-70" d="M455.28,750a3.51,3.51,0,1,1-3.45-2.86A3.2,3.2,0,0,1,455.28,750Z"/></g><g class="cls-35"><path class="cls-71" d="M578.19,790.47c0,7.71-7.53,14-16.82,14s-16.82-6.25-16.82-14,7.53-14,16.82-14S578.19,782.76,578.19,790.47Z"/></g><g class="cls-35"><path class="cls-72" d="M565.43,730.31a.93.93,0,1,1-.91-.75A.84.84,0,0,1,565.43,730.31Z"/></g><g class="cls-35"><path class="cls-73" d="M483.79,787.62c0,2.36-2.31,4.28-5.16,4.28s-5.16-1.92-5.16-4.28,2.31-4.29,5.16-4.29S483.79,785.25,483.79,787.62Z"/></g><g class="cls-35"><path class="cls-74" d="M486.46,740a1.26,1.26,0,1,1-1.23-1A1.14,1.14,0,0,1,486.46,740Z"/></g><g class="cls-35"><path class="cls-75" d="M529.34,804.25c0,2.16-2.11,3.9-4.71,3.9s-4.71-1.74-4.71-3.9,2.11-3.91,4.71-3.91S529.34,802.09,529.34,804.25Z"/></g><g class="cls-35"><path class="cls-76" d="M618.14,817.08a2.44,2.44,0,1,1-2.4-2A2.22,2.22,0,0,1,618.14,817.08Z"/></g><g class="cls-35"><path class="cls-77" d="M604.4,759.91c0,2.11-2.07,3.82-4.61,3.82s-4.61-1.71-4.61-3.82,2.07-3.83,4.61-3.83S604.4,757.79,604.4,759.91Z"/></g><g class="cls-35"><path class="cls-78" d="M505.74,773.29c0,2.17-2.13,3.93-4.74,3.93s-4.75-1.76-4.75-3.93,2.12-3.94,4.75-3.94S505.74,771.11,505.74,773.29Z"/></g><g class="cls-35"><path class="cls-79" d="M631.58,794.48c0,3.91-3.82,7.07-8.52,7.07s-8.52-3.16-8.52-7.07,3.82-7.07,8.52-7.07S631.58,790.58,631.58,794.48Z"/></g><g class="cls-35"><path class="cls-80" d="M611,802c0,2.46-2.39,4.45-5.35,4.45s-5.35-2-5.35-4.45,2.39-4.44,5.35-4.44S611,799.54,611,802Z"/></g><g class="cls-35"><path class="cls-81" d="M515.06,822.08a2.47,2.47,0,1,1-2.43-2A2.26,2.26,0,0,1,515.06,822.08Z"/></g><g class="cls-35"><path class="cls-82" d="M501.28,804.15a2.9,2.9,0,1,1-2.85-2.36A2.65,2.65,0,0,1,501.28,804.15Z"/></g><g class="cls-35"><path class="cls-83" d="M448.79,797.87a2,2,0,1,1-2-1.64A1.83,1.83,0,0,1,448.79,797.87Z"/></g><g class="cls-35"><path class="cls-84" d="M445.67,789.4a1.39,1.39,0,1,1-1.36-1.13A1.26,1.26,0,0,1,445.67,789.4Z"/></g><g class="cls-35"><path class="cls-85" d="M433.11,777.37a.52.52,0,0,1-1,0,.52.52,0,0,1,1,0Z"/></g><g class="cls-35"><path class="cls-86" d="M426.18,774a.58.58,0,0,1-.62.51.52.52,0,1,1,0-1A.58.58,0,0,1,426.18,774Z"/></g><g class="cls-35"><path class="cls-87" d="M554.21,812c0,2.27-2.23,4.12-5,4.12s-5-1.85-5-4.12,2.21-4.11,5-4.11S554.21,809.71,554.21,812Z"/></g><g class="cls-35"><path class="cls-88" d="M629.65,771.53c0,3.77-3.68,6.83-8.22,6.83s-8.23-3.06-8.23-6.83,3.69-6.83,8.23-6.83S629.65,767.76,629.65,771.53Z"/></g><g class="cls-35"><path class="cls-89" d="M663.66,792.35a1.29,1.29,0,1,1-1.27-1.05A1.18,1.18,0,0,1,663.66,792.35Z"/></g><g class="cls-35"><path class="cls-90" d="M683.84,786.32a.93.93,0,0,1-1.83,0,.93.93,0,0,1,1.83,0Z"/></g><g class="cls-35"><path class="cls-91" d="M692.79,775.79a1.27,1.27,0,1,1-1.25-1A1.16,1.16,0,0,1,692.79,775.79Z"/></g><g class="cls-35"><path class="cls-92" d="M674.33,768.3a1.35,1.35,0,1,1-1.33-1.1A1.23,1.23,0,0,1,674.33,768.3Z"/></g><g class="cls-35"><path class="cls-93" d="M648.93,762.67a2,2,0,1,1-2-1.63A1.83,1.83,0,0,1,648.93,762.67Z"/></g><path class="cls-94" d="M2401.25,396.07c-7.58-4.22-20.65-6.35-39.12-6.35h-3.9V495.9q32.2,0,46.34-9.71c8.11-5.53,12.21-15.69,12.21-30.48V429.9C2416.78,413.27,2411.57,402,2401.25,396.07Z"/><path class="cls-94" d="M1389.31,396.07c-7.58-4.22-20.65-6.35-39.12-6.35h-3.89V495.9q32.19,0,46.33-9.71c8.11-5.53,12.21-15.69,12.21-30.48V429.9C1404.84,413.27,1399.63,402,1389.31,396.07Z"/><path class="cls-95" d="M1506.31,614.05q0-68.76-56-86.24,56-21.93,56-87.62v-26.1q0-101.44-114.5-101.47H1244.54v454.8H1346.3V568q35,0,46.74,12.21t11.8,47.44v87.62c0,25.52,2.37,42.89,7.21,52.15h104q-9.72-16.65-9.71-48.26ZM1404.84,455.71c0,14.79-4.1,25-12.21,30.48q-14.13,9.71-46.33,9.71V389.72h3.89c18.47,0,31.54,2.13,39.12,6.35,10.32,5.94,15.53,17.2,15.53,33.83Z"/><polygon class="cls-96" points="1556.25 312.62 1556.25 388.55 1556.25 767.42 1659.11 767.42 1659.11 424.69 1659.11 312.62 1556.25 312.62"/><polygon class="cls-97" points="1951.16 398.28 1804.7 679.51 1942.89 679.51 1911.55 767.42 1690.45 767.42 1690.45 681.56 1837.13 400.53 1705.65 400.53 1736.95 312.62 1951.16 312.62 1951.16 398.28"/><polygon class="cls-98" points="2086.18 577.71 2198.51 577.71 2198.51 490.94 2086.18 490.94 2086.18 400.53 2213.5 400.53 2213.5 312.62 1983.32 312.62 1983.32 767.42 2217.35 767.42 2217.35 679.51 2086.18 679.51 2086.18 577.71"/><path class="cls-99" d="M2518.25,614.05q0-68.76-56-86.24,56-21.93,56-87.62v-26.1q0-101.44-114.5-101.47H2256.48v454.8h101.75V568q35,0,46.75,12.21t11.8,47.44v87.62c0,25.52,2.37,42.89,7.21,52.15h104q-9.72-16.65-9.71-48.26ZM2416.78,455.71c0,14.79-4.1,25-12.21,30.48q-14.13,9.71-46.34,9.71V389.72h3.9c18.47,0,31.54,2.13,39.12,6.35,10.32,5.94,15.53,17.2,15.53,33.83Z"/><path class="cls-100" d="M2809.76,580.49q-11.87-22.17-71-71.28l-8-6.63-2.5-2.21q-67.41-60.22-67.43-81,0-33.56,30.23-33.56,32.14,0,32.16,42.45V459.6h97.33V422.16q0-115.95-126.7-115.93-63.54,0-98.48,31.91t-34.95,89q0,57.39,35.68,94.84,16.29,17.21,68.83,58.49l23.18,18.32c11.64,9.05,20.36,18.43,26.26,28.14s8.85,19.25,8.85,28.72c0,10.69-2.95,19.42-8.81,26.05q-9.33,10.81-25,10.82-33,0-33-45.48V610.15h-101.8v34.13q0,129.53,132.57,129.49,62.55,0,99.1-30.48,39.26-32.74,39.28-94Q2825.53,609.89,2809.76,580.49Z"/></g></g></svg>